<svg width="51" height="51" viewBox="0 0 51 51" fill="none" xmlns="http://www.w3.org/2000/svg">
<path d="M19.125 40.3748C8.5 43.5623 8.5 35.0623 4.25 33.9998M34 46.7498V38.5261C34.0797 37.5128 33.9428 36.4941 33.5984 35.5379C33.254 34.5816 32.71 33.7096 32.0025 32.9798C38.675 32.2361 45.6875 29.7073 45.6875 18.1048C45.687 15.1379 44.5457 12.2849 42.5 10.1361C43.4687 7.54038 43.4002 4.6713 42.3087 2.12481C42.3087 2.12481 39.8013 1.38106 34 5.26981C29.1295 3.9498 23.9955 3.9498 19.125 5.26981C13.3237 1.38106 10.8163 2.12481 10.8163 2.12481C9.7248 4.6713 9.65631 7.54038 10.625 10.1361C8.56402 12.3008 7.42161 15.1797 7.4375 18.1686C7.4375 29.6861 14.45 32.2148 21.1225 33.0436C20.4234 33.766 19.8842 34.6275 19.54 35.5721C19.1959 36.5167 19.0545 37.5232 19.125 38.5261V46.7498" stroke="white" stroke-width="2" stroke-linecap="round" stroke-linejoin="round"/>
</svg>
