<svg width="51" height="51" viewBox="0 0 51 51" fill="none" xmlns="http://www.w3.org/2000/svg">
<path d="M36.125 4.25H14.875C9.00697 4.25 4.25 9.00697 4.25 14.875V36.125C4.25 41.993 9.00697 46.75 14.875 46.75H36.125C41.993 46.75 46.75 41.993 46.75 36.125V14.875C46.75 9.00697 41.993 4.25 36.125 4.25Z" stroke="white" stroke-width="2" stroke-linecap="round" stroke-linejoin="round"/>
<path d="M33.9999 24.1614C34.2621 25.9299 33.96 27.7361 33.1366 29.3231C32.3132 30.91 31.0103 32.1969 29.4133 33.0007C27.8163 33.8045 26.0066 34.0843 24.2414 33.8003C22.4763 33.5162 20.8456 32.6828 19.5814 31.4186C18.3172 30.1544 17.4838 28.5238 17.1998 26.7586C16.9157 24.9935 17.1955 23.1837 17.9993 21.5867C18.8031 19.9897 20.09 18.6869 21.677 17.8634C23.2639 17.04 25.0701 16.7379 26.8386 17.0002C28.6426 17.2677 30.3127 18.1083 31.6022 19.3978C32.8918 20.6873 33.7324 22.3574 33.9999 24.1614Z" stroke="white" stroke-width="2" stroke-linecap="round" stroke-linejoin="round"/>
<path d="M37.1875 13.8125H37.2088" stroke="white" stroke-width="2" stroke-linecap="round" stroke-linejoin="round"/>
</svg>
