<svg width="59" height="59" viewBox="0 0 59 59" fill="none" xmlns="http://www.w3.org/2000/svg">
<path d="M33.1872 49.7813H25.8122C24.8342 49.7813 23.8963 49.3928 23.2047 48.7012C22.5132 48.0097 22.1247 47.0718 22.1247 46.0938V39.0138C18.7473 37.5418 15.8884 35.0917 13.9166 31.9796C11.9448 28.8675 10.9506 25.236 11.0622 21.5535C11.2653 16.8804 13.2129 12.4532 16.5203 9.14571C19.8278 5.83821 24.255 3.8907 28.9281 3.68753C33.2107 3.55507 37.4057 4.91827 40.7923 7.54289C44.179 10.1675 46.5458 13.8897 47.4861 18.0699C48.4264 22.25 47.8815 26.6272 45.9451 30.4492C44.0086 34.2713 40.8014 37.2996 36.8747 39.0138V46.0938C36.8747 47.0718 36.4862 48.0097 35.7946 48.7012C35.1031 49.3928 34.1652 49.7813 33.1872 49.7813ZM29.0387 7.37503C25.3026 7.54172 21.7642 9.10068 19.1198 11.7451C16.4753 14.3896 14.9164 17.928 14.7497 21.6641C14.6529 24.7909 15.5528 27.8674 17.3193 30.4492C19.0858 33.031 21.6274 34.9843 24.5769 36.0269C24.9366 36.1527 25.2486 36.3869 25.4698 36.6972C25.6911 37.0076 25.8107 37.3789 25.8122 37.76V46.0938H33.1872V37.76C33.1887 37.3789 33.3083 37.0076 33.5295 36.6972C33.7507 36.3869 34.0627 36.1527 34.4225 36.0269C36.7874 35.1886 38.8993 33.761 40.5586 31.8789C42.2179 29.9968 43.3696 27.7226 43.9049 25.2713C44.4402 22.82 44.3414 20.2727 43.6177 17.8703C42.8941 15.4678 41.5695 13.2897 39.7694 11.5419C38.3609 10.1503 36.6818 9.0625 34.8361 8.34578C32.9904 7.62905 31.0173 7.29866 29.0387 7.37503Z" fill="white"/>
<path d="M35.0312 55.3125H23.9688C23.4798 55.3125 23.0108 55.1182 22.665 54.7725C22.3193 54.4267 22.125 53.9577 22.125 53.4688C22.125 52.9798 22.3193 52.5108 22.665 52.165C23.0108 51.8193 23.4798 51.625 23.9688 51.625H35.0312C35.5202 51.625 35.9892 51.8193 36.335 52.165C36.6807 52.5108 36.875 52.9798 36.875 53.4688C36.875 53.9577 36.6807 54.4267 36.335 54.7725C35.9892 55.1182 35.5202 55.3125 35.0312 55.3125Z" fill="white"/>
<path d="M27.6561 44.2498V35.9161C24.3378 34.7447 21.4779 32.5488 19.4894 29.6456C17.5008 26.7423 16.4868 23.2821 16.5936 19.7648C16.7595 14.2336 19.7464 10.6751 24.9273 8.1123C17.497 8.24137 13.1273 14.7498 12.9061 21.6086C12.7993 25.1259 13.8133 28.5861 15.8019 31.4893C17.7904 34.3925 20.6503 36.5884 23.9686 37.7598V46.0936C23.9686 46.5826 24.1628 47.0515 24.5086 47.3973C24.8544 47.7431 25.3233 47.9373 25.8123 47.9373H33.1873C33.6763 47.9373 34.1453 47.7431 34.4911 47.3973C34.8368 47.0515 35.0311 46.5826 35.0311 46.0936H29.4998C29.0108 46.0936 28.5419 45.8993 28.1961 45.5535C27.8503 45.2078 27.6561 44.7388 27.6561 44.2498Z" fill="white"/>
</svg>
