<svg width="51" height="51" viewBox="0 0 51 51" fill="none" xmlns="http://www.w3.org/2000/svg">
<path d="M48.875 6.37488C46.8401 7.81027 44.587 8.90812 42.2025 9.62613C40.9227 8.15459 39.2218 7.1116 37.3299 6.63823C35.4381 6.16485 33.4464 6.28392 31.6244 6.97935C29.8024 7.67477 28.2379 8.91299 27.1426 10.5265C26.0472 12.1401 25.4739 14.0511 25.5 16.0011V18.1261C21.7656 18.223 18.0652 17.3947 14.7284 15.7152C11.3916 14.0357 8.52192 11.557 6.375 8.49988C6.375 8.49988 -2.125 27.6249 17 36.1249C12.6236 39.0956 7.41021 40.5851 2.125 40.3749C21.25 50.9999 44.625 40.3749 44.625 15.9374C44.623 15.3455 44.5661 14.755 44.455 14.1736C46.6238 12.0348 48.1543 9.3344 48.875 6.37488V6.37488Z" stroke="white" stroke-width="2" stroke-linecap="round" stroke-linejoin="round"/>
</svg>
